
<global>
amp_veltrack=0
ampeg_release=0.50
</global>

<group>
ampeg_attack=0.01
ampeg_release=0.35
group_label=PP
loop_mode=loop_continuous
xf_cccurve=gain
xfin_hicc1=42
xfout_hicc1=85
xfout_locc1=42

<region>
hikey=A#4
hivel=127
lokey=A4
loop_end=297827
loop_start=130815
loop_xfade=48985
lovel=0
offset=14555
pitch_keycenter=A#4
sample=Cellos_harmonic_PP_A#3.opus
</region>

<region>
hikey=A#5
hivel=127
lokey=A5
loop_end=298228
loop_start=130992
loop_xfade=49051
lovel=0
offset=14997
pitch_keycenter=A#5
sample=Cellos_harmonic_PP_A#4.opus
</region>

<region>
hikey=C4
hivel=127
lokey=C4
loop_end=298228
loop_start=130992
loop_xfade=49051
lovel=0
offset=9274
sample=Cellos_harmonic_PP_C3.opus
</region>

<region>
hikey=C5
hivel=127
lokey=B4
loop_end=298228
loop_start=130992
loop_xfade=49051
lovel=0
offset=13073
pitch_keycenter=C5
sample=Cellos_harmonic_PP_C4.opus
</region>

<region>
hikey=C6
hivel=127
lokey=B5
loop_end=298228
loop_start=130992
loop_xfade=49051
lovel=0
offset=18679
pitch_keycenter=C6
sample=Cellos_harmonic_PP_C5.opus
</region>

<region>
hikey=D4
hivel=127
lokey=C#4
loop_end=292574
loop_start=128508
loop_xfade=48121
lovel=0
offset=10504
pitch_keycenter=D4
sample=Cellos_harmonic_PP_D3.opus
</region>

<region>
hikey=D5
hivel=127
lokey=C#5
loop_end=298152
loop_start=130958
loop_xfade=49039
lovel=0
offset=13875
pitch_keycenter=D5
sample=Cellos_harmonic_PP_D4.opus
</region>

<region>
hikey=D6
hivel=127
lokey=C#6
loop_end=298228
loop_start=130992
loop_xfade=49051
lovel=0
offset=16872
pitch_keycenter=D6
sample=Cellos_harmonic_PP_D5.opus
</region>

<region>
hikey=E4
hivel=127
lokey=D#4
loop_end=284581
loop_start=124998
loop_xfade=46806
lovel=0
pitch_keycenter=E4
sample=Cellos_harmonic_PP_E3.opus
</region>

<region>
hikey=E5
hivel=127
lokey=D#5
loop_end=298228
loop_start=130992
loop_xfade=49051
lovel=0
offset=18590
pitch_keycenter=E5
sample=Cellos_harmonic_PP_E4.opus
</region>

<region>
hikey=E6
hivel=127
lokey=D#6
loop_end=298228
loop_start=130992
loop_xfade=49051
lovel=0
offset=20054
pitch_keycenter=E6
sample=Cellos_harmonic_PP_E5.opus
</region>

<region>
hikey=F#4
hivel=127
lokey=F4
loop_end=298228
loop_start=130992
loop_xfade=49051
lovel=0
offset=15354
pitch_keycenter=F#4
sample=Cellos_harmonic_PP_F#3.opus
</region>

<region>
hikey=F#5
hivel=127
lokey=F5
loop_end=298228
loop_start=130992
loop_xfade=49051
lovel=0
offset=14995
pitch_keycenter=F#5
sample=Cellos_harmonic_PP_F#4.opus
</region>

<region>
hikey=C7
hivel=127
lokey=F6
loop_end=259993
loop_start=114198
loop_xfade=42762
lovel=0
offset=18201
pitch_keycenter=F#6
sample=Cellos_harmonic_PP_F#5.opus
</region>

<region>
hikey=G#4
hivel=127
lokey=G4
loop_end=289498
loop_start=127157
loop_xfade=47615
lovel=0
offset=4504
pitch_keycenter=G#4
sample=Cellos_harmonic_PP_G#3.opus
</region>

<region>
hikey=G#5
hivel=127
lokey=G5
loop_end=298228
loop_start=130992
loop_xfade=49051
lovel=0
offset=16957
pitch_keycenter=G#5
sample=Cellos_harmonic_PP_G#4.opus
</region>
</group>

<group>
ampeg_attack=0.01
ampeg_release=0.35
group_label=MF
loop_mode=loop_continuous
xf_cccurve=gain
xfin_hicc1=85
xfin_locc1=42
xfout_hicc1=127
xfout_locc1=85

<region>
hikey=A#4
hivel=127
lokey=A4
loop_end=294084
loop_start=129172
loop_xfade=48369
lovel=0
offset=14430
pitch_keycenter=A#4
sample=Cellos_harmonic_MF_A#3.opus
</region>

<region>
hikey=A#5
hivel=127
lokey=A5
loop_end=290027
loop_start=127389
loop_xfade=47702
lovel=0
offset=4931
pitch_keycenter=A#5
sample=Cellos_harmonic_MF_A#4.opus
</region>

<region>
hikey=C4
hivel=127
lokey=C4
loop_end=275651
loop_start=121075
loop_xfade=45338
lovel=0
sample=Cellos_harmonic_MF_C3.opus
</region>

<region>
hikey=C5
hivel=127
lokey=B4
loop_end=274835
loop_start=120717
loop_xfade=45203
lovel=0
pitch_keycenter=C5
sample=Cellos_harmonic_MF_C4.opus
</region>

<region>
hikey=C6
hivel=127
lokey=B5
loop_end=282967
loop_start=124288
loop_xfade=46541
lovel=0
offset=12554
pitch_keycenter=C6
sample=Cellos_harmonic_MF_C5.opus
</region>

<region>
hikey=D4
hivel=127
lokey=C#4
loop_end=280266
loop_start=123102
loop_xfade=46097
lovel=0
pitch_keycenter=D4
sample=Cellos_harmonic_MF_D3.opus
</region>

<region>
hikey=D5
hivel=127
lokey=C#5
loop_end=286107
loop_start=125668
loop_xfade=47057
lovel=0
offset=2818
pitch_keycenter=D5
sample=Cellos_harmonic_MF_D4.opus
</region>

<region>
hikey=D6
hivel=127
lokey=C#6
loop_end=283990
loop_start=124738
loop_xfade=46709
lovel=0
offset=4161
pitch_keycenter=D6
sample=Cellos_harmonic_MF_D5.opus
</region>

<region>
hikey=E4
hivel=127
lokey=D#4
loop_end=281006
loop_start=123427
loop_xfade=46219
lovel=0
pitch_keycenter=E4
sample=Cellos_harmonic_MF_E3.opus
</region>

<region>
hikey=E5
hivel=127
lokey=D#5
loop_end=288745
loop_start=126826
loop_xfade=47491
lovel=0
offset=14228
pitch_keycenter=E5
sample=Cellos_harmonic_MF_E4.opus
</region>

<region>
hikey=E6
hivel=127
lokey=D#6
loop_end=298228
loop_start=130992
loop_xfade=49051
lovel=0
offset=17451
pitch_keycenter=E6
sample=Cellos_harmonic_MF_E5.opus
</region>

<region>
hikey=F#4
hivel=127
lokey=F4
loop_end=281550
loop_start=123666
loop_xfade=46308
lovel=0
offset=5237
pitch_keycenter=F#4
sample=Cellos_harmonic_MF_F#3.opus
</region>

<region>
hikey=F#5
hivel=127
lokey=F5
loop_end=291335
loop_start=127964
loop_xfade=47917
lovel=0
offset=19317
pitch_keycenter=F#5
sample=Cellos_harmonic_MF_F#4.opus
</region>

<region>
hikey=C7
hivel=127
lokey=F6
loop_end=247548
loop_start=108731
loop_xfade=40715
lovel=0
offset=4438
pitch_keycenter=F#6
sample=Cellos_harmonic_MF_F#5.opus
</region>

<region>
hikey=G#4
hivel=127
lokey=G4
loop_end=270909
loop_start=118992
loop_xfade=44558
lovel=0
pitch_keycenter=G#4
sample=Cellos_harmonic_MF_G#3.opus
</region>

<region>
hikey=G#5
hivel=127
lokey=G5
loop_end=289173
loop_start=127014
loop_xfade=47562
lovel=0
offset=4141
pitch_keycenter=G#5
sample=Cellos_harmonic_MF_G#4.opus
</region>
</group>

<group>
ampeg_attack=0.01
ampeg_release=0.35
group_label=FF
loop_mode=loop_continuous
xf_cccurve=gain
xfin_hicc1=127
xfin_locc1=85
xfout_hicc1=127
xfout_locc1=127

<region>
hikey=A#4
hivel=127
lokey=A4
loop_end=285229
loop_start=125282
loop_xfade=46913
lovel=0
pitch_keycenter=A#4
sample=Cellos_harmonic_FF_A#3.opus
</region>

<region>
hikey=A#5
hivel=127
lokey=A5
loop_end=283776
loop_start=124644
loop_xfade=46674
lovel=0
pitch_keycenter=A#5
sample=Cellos_harmonic_FF_A#4.opus
</region>

<region>
hikey=C4
hivel=127
lokey=C4
loop_end=282775
loop_start=124204
loop_xfade=46509
lovel=0
sample=Cellos_harmonic_FF_C3.opus
</region>

<region>
hikey=C5
hivel=127
lokey=B4
loop_end=285460
loop_start=125384
loop_xfade=46951
lovel=0
pitch_keycenter=C5
sample=Cellos_harmonic_FF_C4.opus
</region>

<region>
hikey=C6
hivel=127
lokey=B5
loop_end=285454
loop_start=125381
loop_xfade=46950
lovel=0
pitch_keycenter=C6
sample=Cellos_harmonic_FF_C5.opus
</region>

<region>
hikey=D4
hivel=127
lokey=C#4
loop_end=286357
loop_start=125777
loop_xfade=47099
lovel=0
pitch_keycenter=D4
sample=Cellos_harmonic_FF_D3.opus
</region>

<region>
hikey=D5
hivel=127
lokey=C#5
loop_end=283598
loop_start=124566
loop_xfade=46645
lovel=0
pitch_keycenter=D5
sample=Cellos_harmonic_FF_D4.opus
</region>

<region>
hikey=D6
hivel=127
lokey=C#6
loop_end=284503
loop_start=124963
loop_xfade=46794
lovel=0
pitch_keycenter=D6
sample=Cellos_harmonic_FF_D5.opus
</region>

<region>
hikey=E4
hivel=127
lokey=D#4
loop_end=284514
loop_start=124968
loop_xfade=46795
lovel=0
pitch_keycenter=E4
sample=Cellos_harmonic_FF_E3.opus
</region>

<region>
hikey=E5
hivel=127
lokey=D#5
loop_end=282356
loop_start=124020
loop_xfade=46441
lovel=0
pitch_keycenter=E5
sample=Cellos_harmonic_FF_E4.opus
</region>

<region>
hikey=C7
hivel=127
lokey=D#6
loop_end=285631
loop_start=125458
loop_xfade=46979
lovel=0
pitch_keycenter=E6
sample=Cellos_harmonic_FF_E5.opus
</region>

<region>
hikey=F#4
hivel=127
lokey=F4
loop_end=284500
loop_start=124962
loop_xfade=46793
lovel=0
pitch_keycenter=F#4
sample=Cellos_harmonic_FF_F#3.opus
</region>

<region>
hikey=F#5
hivel=127
lokey=F5
loop_end=283470
loop_start=124510
loop_xfade=46624
lovel=0
pitch_keycenter=F#5
sample=Cellos_harmonic_FF_F#4.opus
</region>

<region>
hikey=G#4
hivel=127
lokey=G4
loop_end=286355
loop_start=125776
loop_xfade=47098
lovel=0
pitch_keycenter=G#4
sample=Cellos_harmonic_FF_G#3.opus
</region>

<region>
hikey=G#5
hivel=127
lokey=G5
loop_end=285923
loop_start=125587
loop_xfade=47027
lovel=0
pitch_keycenter=G#5
sample=Cellos_harmonic_FF_G#4.opus
</region>
</group>

<group>
ampeg_attack=0.01
ampeg_release=3.50
group_label=PP_release
rt_decay=0.000000
trigger=release
xf_cccurve=gain
xfin_hicc1=42
xfout_hicc1=85
xfout_locc1=42

<region>
hikey=A#4
hivel=127
lokey=A4
loop_mode=loop_continuous
lovel=0
offset=288000
pitch_keycenter=A#4
sample=Cellos_harmonic_PP_A#3.opus
</region>

<region>
hikey=A#5
hivel=127
lokey=A5
loop_mode=loop_continuous
lovel=0
offset=288000
pitch_keycenter=A#5
sample=Cellos_harmonic_PP_A#4.opus
</region>

<region>
hikey=C4
hivel=127
lokey=C4
loop_mode=loop_continuous
lovel=0
offset=288000
sample=Cellos_harmonic_PP_C3.opus
</region>

<region>
hikey=C5
hivel=127
lokey=B4
loop_mode=loop_continuous
lovel=0
offset=288000
pitch_keycenter=C5
sample=Cellos_harmonic_PP_C4.opus
</region>

<region>
hikey=C6
hivel=127
lokey=B5
loop_mode=loop_continuous
lovel=0
offset=288000
pitch_keycenter=C6
sample=Cellos_harmonic_PP_C5.opus
</region>

<region>
hikey=D4
hivel=127
lokey=C#4
loop_mode=loop_continuous
lovel=0
offset=288000
pitch_keycenter=D4
sample=Cellos_harmonic_PP_D3.opus
</region>

<region>
hikey=D5
hivel=127
lokey=C#5
loop_mode=loop_continuous
lovel=0
offset=288000
pitch_keycenter=D5
sample=Cellos_harmonic_PP_D4.opus
</region>

<region>
hikey=D6
hivel=127
lokey=C#6
loop_mode=loop_continuous
lovel=0
offset=288000
pitch_keycenter=D6
sample=Cellos_harmonic_PP_D5.opus
</region>

<region>
hikey=E4
hivel=127
lokey=D#4
loop_mode=loop_continuous
lovel=0
offset=288000
pitch_keycenter=E4
sample=Cellos_harmonic_PP_E3.opus
</region>

<region>
hikey=E5
hivel=127
lokey=D#5
loop_mode=loop_continuous
lovel=0
offset=288000
pitch_keycenter=E5
sample=Cellos_harmonic_PP_E4.opus
</region>

<region>
hikey=E6
hivel=127
lokey=D#6
loop_mode=loop_continuous
lovel=0
offset=288000
pitch_keycenter=E6
sample=Cellos_harmonic_PP_E5.opus
</region>

<region>
hikey=F#4
hivel=127
lokey=F4
loop_mode=loop_continuous
lovel=0
offset=288000
pitch_keycenter=F#4
sample=Cellos_harmonic_PP_F#3.opus
</region>

<region>
hikey=F#5
hivel=127
lokey=F5
loop_mode=loop_continuous
lovel=0
offset=288000
pitch_keycenter=F#5
sample=Cellos_harmonic_PP_F#4.opus
</region>

<region>
hikey=C7
hivel=127
lokey=F6
loop_mode=loop_continuous
lovel=0
offset=288000
pitch_keycenter=F#6
sample=Cellos_harmonic_PP_F#5.opus
</region>

<region>
hikey=G#4
hivel=127
lokey=G4
loop_mode=loop_continuous
lovel=0
offset=288000
pitch_keycenter=G#4
sample=Cellos_harmonic_PP_G#3.opus
</region>

<region>
hikey=G#5
hivel=127
lokey=G5
loop_mode=loop_continuous
lovel=0
offset=288000
pitch_keycenter=G#5
sample=Cellos_harmonic_PP_G#4.opus
</region>
</group>

<group>
ampeg_attack=0.01
ampeg_release=3.50
group_label=MF_release
rt_decay=0.000000
trigger=release
xf_cccurve=gain
xfin_hicc1=85
xfin_locc1=42
xfout_hicc1=127
xfout_locc1=85

<region>
hikey=A#4
hivel=127
lokey=A4
loop_mode=loop_continuous
lovel=0
offset=288000
pitch_keycenter=A#4
sample=Cellos_harmonic_MF_A#3.opus
</region>

<region>
hikey=A#5
hivel=127
lokey=A5
loop_mode=loop_continuous
lovel=0
offset=288000
pitch_keycenter=A#5
sample=Cellos_harmonic_MF_A#4.opus
</region>

<region>
hikey=C4
hivel=127
lokey=C4
loop_mode=loop_continuous
lovel=0
offset=288000
sample=Cellos_harmonic_MF_C3.opus
</region>

<region>
hikey=C5
hivel=127
lokey=B4
loop_mode=loop_continuous
lovel=0
offset=288000
pitch_keycenter=C5
sample=Cellos_harmonic_MF_C4.opus
</region>

<region>
hikey=C6
hivel=127
lokey=B5
loop_mode=loop_continuous
lovel=0
offset=288000
pitch_keycenter=C6
sample=Cellos_harmonic_MF_C5.opus
</region>

<region>
hikey=D4
hivel=127
lokey=C#4
loop_mode=loop_continuous
lovel=0
offset=288000
pitch_keycenter=D4
sample=Cellos_harmonic_MF_D3.opus
</region>

<region>
hikey=D5
hivel=127
lokey=C#5
loop_mode=loop_continuous
lovel=0
offset=288000
pitch_keycenter=D5
sample=Cellos_harmonic_MF_D4.opus
</region>

<region>
hikey=D6
hivel=127
lokey=C#6
loop_mode=loop_continuous
lovel=0
offset=288000
pitch_keycenter=D6
sample=Cellos_harmonic_MF_D5.opus
</region>

<region>
hikey=E4
hivel=127
lokey=D#4
loop_mode=loop_continuous
lovel=0
offset=288000
pitch_keycenter=E4
sample=Cellos_harmonic_MF_E3.opus
</region>

<region>
hikey=E5
hivel=127
lokey=D#5
loop_mode=loop_continuous
lovel=0
offset=288000
pitch_keycenter=E5
sample=Cellos_harmonic_MF_E4.opus
</region>

<region>
hikey=E6
hivel=127
lokey=D#6
loop_mode=loop_continuous
lovel=0
offset=288000
pitch_keycenter=E6
sample=Cellos_harmonic_MF_E5.opus
</region>

<region>
hikey=F#4
hivel=127
lokey=F4
loop_mode=loop_continuous
lovel=0
offset=288000
pitch_keycenter=F#4
sample=Cellos_harmonic_MF_F#3.opus
</region>

<region>
hikey=F#5
hivel=127
lokey=F5
loop_mode=loop_continuous
lovel=0
offset=288000
pitch_keycenter=F#5
sample=Cellos_harmonic_MF_F#4.opus
</region>

<region>
hikey=C7
hivel=127
lokey=F6
loop_mode=loop_continuous
lovel=0
offset=288000
pitch_keycenter=F#6
sample=Cellos_harmonic_MF_F#5.opus
</region>

<region>
hikey=G#4
hivel=127
lokey=G4
loop_mode=loop_continuous
lovel=0
offset=288000
pitch_keycenter=G#4
sample=Cellos_harmonic_MF_G#3.opus
</region>

<region>
hikey=G#5
hivel=127
lokey=G5
loop_mode=loop_continuous
lovel=0
offset=288000
pitch_keycenter=G#5
sample=Cellos_harmonic_MF_G#4.opus
</region>
</group>

<group>
ampeg_attack=0.01
ampeg_release=3.50
group_label=FF_release
rt_decay=0.000000
trigger=release
xf_cccurve=gain
xfin_hicc1=127
xfin_locc1=85
xfout_hicc1=127
xfout_locc1=127

<region>
hikey=A#4
hivel=127
lokey=A4
loop_mode=loop_continuous
lovel=0
offset=288000
pitch_keycenter=A#4
sample=Cellos_harmonic_FF_A#3.opus
</region>

<region>
hikey=A#5
hivel=127
lokey=A5
loop_mode=loop_continuous
lovel=0
offset=288000
pitch_keycenter=A#5
sample=Cellos_harmonic_FF_A#4.opus
</region>

<region>
hikey=C4
hivel=127
lokey=C4
loop_mode=loop_continuous
lovel=0
offset=288000
sample=Cellos_harmonic_FF_C3.opus
</region>

<region>
hikey=C5
hivel=127
lokey=B4
loop_mode=loop_continuous
lovel=0
offset=288000
pitch_keycenter=C5
sample=Cellos_harmonic_FF_C4.opus
</region>

<region>
hikey=C6
hivel=127
lokey=B5
loop_mode=loop_continuous
lovel=0
offset=288000
pitch_keycenter=C6
sample=Cellos_harmonic_FF_C5.opus
</region>

<region>
hikey=D4
hivel=127
lokey=C#4
loop_mode=loop_continuous
lovel=0
offset=288000
pitch_keycenter=D4
sample=Cellos_harmonic_FF_D3.opus
</region>

<region>
hikey=D5
hivel=127
lokey=C#5
loop_mode=loop_continuous
lovel=0
offset=288000
pitch_keycenter=D5
sample=Cellos_harmonic_FF_D4.opus
</region>

<region>
hikey=D6
hivel=127
lokey=C#6
loop_mode=loop_continuous
lovel=0
offset=288000
pitch_keycenter=D6
sample=Cellos_harmonic_FF_D5.opus
</region>

<region>
hikey=E4
hivel=127
lokey=D#4
loop_mode=loop_continuous
lovel=0
offset=288000
pitch_keycenter=E4
sample=Cellos_harmonic_FF_E3.opus
</region>

<region>
hikey=E5
hivel=127
lokey=D#5
loop_mode=loop_continuous
lovel=0
offset=288000
pitch_keycenter=E5
sample=Cellos_harmonic_FF_E4.opus
</region>

<region>
hikey=C7
hivel=127
lokey=D#6
loop_mode=loop_continuous
lovel=0
offset=288000
pitch_keycenter=E6
sample=Cellos_harmonic_FF_E5.opus
</region>

<region>
hikey=F#4
hivel=127
lokey=F4
loop_mode=loop_continuous
lovel=0
offset=288000
pitch_keycenter=F#4
sample=Cellos_harmonic_FF_F#3.opus
</region>

<region>
hikey=F#5
hivel=127
lokey=F5
loop_mode=loop_continuous
lovel=0
offset=288000
pitch_keycenter=F#5
sample=Cellos_harmonic_FF_F#4.opus
</region>

<region>
hikey=G#4
hivel=127
lokey=G4
loop_mode=loop_continuous
lovel=0
offset=288000
pitch_keycenter=G#4
sample=Cellos_harmonic_FF_G#3.opus
</region>

<region>
hikey=G#5
hivel=127
lokey=G5
loop_mode=loop_continuous
lovel=0
offset=288000
pitch_keycenter=G#5
sample=Cellos_harmonic_FF_G#4.opus
</region>
</group>